<?xml version="1.0" encoding="UTF-8"?>
<svg xmlns="http://www.w3.org/2000/svg" xmlns:xlink="http://www.w3.org/1999/xlink" width="690.67pt" height="186.67pt" viewBox="0 0 690.67 186.67" version="1.1">
<g id="surface1">
<path style=" stroke:none;fill-rule:nonzero;fill:rgb(47.450256%,74.116516%,90.979004%);fill-opacity:1;" d="M 390.589844 83.648438 L 408.046875 83.648438 C 413.03125 83.648438 416.929688 82.441406 419.71875 80.023438 C 422.515625 77.605469 423.914063 74.253906 423.914063 69.964844 C 423.914063 67.636719 422.898438 65.894531 420.828125 64.699219 C 418.757813 63.523438 415.726563 62.9375 411.734375 62.9375 L 394.828125 62.9375 Z M 384.132813 114.710938 L 404.40625 114.710938 C 409.28125 114.710938 413.273438 113.269531 416.367188 110.359375 C 419.46875 107.46875 421.015625 103.730469 421.015625 99.148438 C 421.039063 96.722656 419.898438 94.804688 417.617188 93.394531 C 415.3125 91.984375 412.1875 91.28125 408.242188 91.28125 L 389.027344 91.28125 Z M 387.320313 54.941406 L 417.28125 54.941406 C 422.328125 54.941406 426.257813 56.085938 429.109375 58.355469 C 431.945313 60.621094 433.359375 63.773438 433.359375 67.785156 C 433.359375 74.390625 431.015625 79.554688 426.3125 83.265625 C 424.882813 84.367188 423.289063 85.316406 421.578125 86.117188 C 422.679688 86.605469 423.742188 87.199219 424.757813 87.875 C 428.429688 90.363281 430.273438 93.78125 430.273438 98.121094 C 430.234375 105.15625 427.625 111.023438 422.40625 115.691406 C 417.195313 120.375 410.648438 122.707031 402.765625 122.707031 L 373.328125 122.707031 L 387.320313 54.941406 "/>
<path style=" stroke:none;fill-rule:nonzero;fill:rgb(47.450256%,74.116516%,90.979004%);fill-opacity:1;" d="M 457.273438 94.914063 L 478.691406 94.914063 L 474.558594 65.035156 L 474.457031 65.035156 Z M 471.941406 54.941406 L 482.292969 54.941406 L 492.175781 122.707031 L 482.363281 122.707031 L 479.722656 102.898438 L 452.640625 102.898438 L 441.375 122.707031 L 431.75 122.707031 L 471.941406 54.941406 "/>
<path style=" stroke:none;fill-rule:nonzero;fill:rgb(47.450256%,74.116516%,90.979004%);fill-opacity:1;" d="M 507.261719 122.707031 L 498.464844 122.707031 L 512.457031 54.941406 L 523.175781 54.941406 L 545.980469 110.054688 L 557.402344 54.941406 L 566.183594 54.941406 L 552.183594 122.707031 L 541.785156 122.707031 L 518.652344 67.507813 L 507.261719 122.707031 "/>
<path style=" stroke:none;fill-rule:nonzero;fill:rgb(47.450256%,74.116516%,90.979004%);fill-opacity:1;" d="M 572.480469 54.941406 L 581.652344 54.941406 L 574.878906 87.773438 L 614.378906 54.941406 L 627.222656 54.941406 L 593.621094 82.070313 L 613.785156 122.707031 L 602.011719 122.707031 L 585.339844 88.628906 L 572.558594 98.976563 L 567.652344 122.707031 L 558.488281 122.707031 L 572.480469 54.941406 "/>
<path style=" stroke:none;fill-rule:nonzero;fill:rgb(0%,35.299683%,48.999023%);fill-opacity:1;" d="M 275.523438 70.902344 L 273.164063 82.421875 "/>
<path style=" stroke:none;fill-rule:nonzero;fill:rgb(0%,40.783691%,69.802856%);fill-opacity:1;" d="M 96.207031 95.367188 L 108.960938 95.367188 L 106.835938 75.574219 Z M 63.441406 122.808594 L 102.371094 54.726563 L 120.027344 54.726563 L 129.8125 122.59375 L 112.164063 122.59375 L 110.460938 109.398438 L 88.121094 109.398438 L 81.292969 122.777344 L 63.441406 122.808594 "/>
<path style=" stroke:none;fill-rule:nonzero;fill:rgb(0%,40.783691%,69.802856%);fill-opacity:1;" d="M 197.605469 122.808594 L 211.855469 54.726563 L 261.835938 54.726563 L 258.644531 69.800781 L 225.261719 69.800781 L 222.921875 80.898438 L 251.199219 80.898438 L 248.242188 95.367188 L 219.933594 95.367188 L 213.980469 122.808594 L 197.605469 122.808594 "/>
<path style=" stroke:none;fill-rule:nonzero;fill:rgb(0%,40.783691%,69.802856%);fill-opacity:1;" d="M 139.15625 122.808594 L 153.410156 54.726563 L 203.488281 54.726563 L 200.226563 69.855469 L 166.820313 69.855469 L 164.476563 80.898438 L 192.769531 80.898438 L 189.796875 95.367188 L 161.492188 95.367188 L 155.539063 122.808594 L 139.15625 122.808594 "/>
<path style=" stroke:none;fill-rule:nonzero;fill:rgb(0%,40.783691%,69.802856%);fill-opacity:1;" d="M 300.054688 122.59375 L 315.789063 122.59375 L 324.515625 80.265625 L 340.679688 122.808594 L 356.425781 122.808594 L 370.472656 54.761719 L 354.726563 54.761719 L 346.003906 97.074219 L 330.6875 54.945313 L 314.304688 54.945313 L 300.054688 122.59375 "/>
<path style=" stroke:none;fill-rule:nonzero;fill:rgb(92.89856%,10.998535%,14.099121%);fill-opacity:1;" d="M 294.1875 66.089844 C 294.1875 66.089844 292.816406 67.0625 290.617188 68.722656 C 326.683594 41.871094 371.382813 25.980469 419.796875 25.980469 C 420.828125 25.980469 421.84375 26.011719 422.875 26.023438 C 414.882813 24.976563 406.734375 24.429688 398.460938 24.429688 C 360.136719 24.429688 324.519531 36.019531 294.921875 55.859375 C 295.460938 55.515625 295.996094 55.175781 296.519531 54.851563 L 294.1875 66.089844 "/>
<path style=" stroke:none;fill-rule:nonzero;fill:rgb(92.89856%,10.998535%,14.099121%);fill-opacity:1;" d="M 279.894531 77.246094 C 279.351563 77.714844 278.785156 78.183594 278.230469 78.664063 C 278.785156 78.1875 279.34375 77.71875 279.894531 77.246094 "/>
<path style=" stroke:none;fill-rule:nonzero;fill:rgb(92.89856%,10.998535%,14.099121%);fill-opacity:1;" d="M 277.285156 69.273438 C 280.011719 67.003906 285.503906 62.523438 290.785156 58.710938 C 286.117188 62.023438 281.613281 65.550781 277.285156 69.273438 "/>
<path style=" stroke:none;fill-rule:nonzero;fill:rgb(92.89856%,10.998535%,14.099121%);fill-opacity:1;" d="M 275.519531 70.800781 C 248.390625 94.671875 228.269531 126.3125 218.617188 162.25 C 231.570313 129.824219 252.132813 101.273438 278.097656 78.78125 C 276.394531 80.246094 274.660156 81.78125 272.96875 83.355469 L 275.519531 70.800781 "/>
<path style=" stroke:none;fill-rule:nonzero;fill:rgb(100%,100%,100%);fill-opacity:1;" d="M 275.523438 70.746094 L 275.519531 70.800781 C 276.097656 70.28125 276.6875 69.777344 277.285156 69.273438 C 276.179688 70.191406 275.523438 70.746094 275.523438 70.746094 "/>
<path style=" stroke:none;fill-rule:nonzero;fill:rgb(100%,100%,100%);fill-opacity:1;" d="M 290.785156 58.710938 C 292.148438 57.742188 293.523438 56.804688 294.921875 55.859375 C 293.601563 56.730469 292.199219 57.695313 290.785156 58.710938 "/>
<path style=" stroke:none;fill-rule:nonzero;fill:rgb(100%,100%,100%);fill-opacity:1;" d="M 278.097656 78.78125 C 278.144531 78.742188 278.1875 78.699219 278.230469 78.664063 C 278.1875 78.699219 278.144531 78.742188 278.097656 78.78125 "/>
<path style=" stroke:none;fill-rule:nonzero;fill:rgb(100%,100%,100%);fill-opacity:1;" d="M 290.617188 68.722656 C 286.949219 71.453125 283.382813 74.300781 279.894531 77.246094 C 284.066406 73.738281 287.953125 70.730469 290.617188 68.722656 "/>
<path style=" stroke:none;fill-rule:nonzero;fill:rgb(0%,40.783691%,69.802856%);fill-opacity:1;" d="M 278.84375 54.769531 L 275.554688 70.761719 C 276.128906 70.257813 276.703125 69.769531 277.285156 69.273438 C 280.011719 67.003906 285.503906 62.523438 290.785156 58.710938 C 292.148438 57.742188 293.523438 56.804688 294.921875 55.859375 C 295.460938 55.515625 295.996094 55.175781 296.519531 54.851563 L 294.1875 66.089844 C 294.1875 66.089844 292.816406 67.0625 290.617188 68.722656 C 286.949219 71.453125 283.382813 74.300781 279.894531 77.246094 C 279.351563 77.714844 278.785156 78.183594 278.230469 78.664063 C 278.1875 78.699219 278.144531 78.742188 278.097656 78.78125 C 276.394531 80.246094 274.664063 81.777344 272.972656 83.351563 L 264.789063 122.816406 L 282.171875 122.816406 L 294.34375 65.421875 L 296.570313 54.769531 L 278.84375 54.769531 "/>
<path style=" stroke:none;fill-rule:nonzero;fill:rgb(100%,100%,100%);fill-opacity:1;" d="M 275.523438 70.902344 L 275.554688 70.761719 C 275.546875 70.777344 275.527344 70.78125 275.519531 70.800781 L 272.96875 83.355469 C 272.96875 83.351563 272.96875 83.351563 272.972656 83.351563 L 273.164063 82.421875 L 275.523438 70.902344 "/>
</g>
</svg>
