<?xml version="1.0" encoding="UTF-8"?>
<svg xmlns="http://www.w3.org/2000/svg" xmlns:xlink="http://www.w3.org/1999/xlink" width="841.89pt" height="595.28pt" viewBox="0 0 841.89 595.28" version="1.1">
<g id="surface1">
<path style=" stroke:none;fill-rule:nonzero;fill:rgb(100%,100%,100%);fill-opacity:1;" d="M 841.890625 595.28125 L 0 595.28125 L 0 0.00390625 L 841.890625 0.00390625 L 841.890625 595.28125 "/>
<path style=" stroke:none;fill-rule:nonzero;fill:rgb(77.645874%,4.705811%,27.450562%);fill-opacity:1;" d="M 340.695313 258.175781 C 340.695313 242.839844 340.695313 240.003906 340.476563 236.78125 C 340.285156 233.351563 339.277344 231.636719 337.054688 231.121094 C 335.949219 230.824219 334.632813 230.71875 333.425781 230.71875 C 332.410156 230.71875 331.800781 230.519531 331.800781 229.710938 C 331.800781 229.105469 332.609375 228.90625 334.226563 228.90625 C 338.0625 228.90625 344.414063 229.207031 347.351563 229.207031 C 349.875 229.207031 355.828125 228.90625 359.65625 228.90625 C 360.972656 228.90625 361.78125 229.105469 361.78125 229.710938 C 361.78125 230.519531 361.175781 230.71875 360.175781 230.71875 C 359.148438 230.71875 358.347656 230.824219 357.144531 231.023438 C 354.410156 231.527344 353.605469 233.246094 353.414063 236.78125 C 353.203125 240.003906 353.203125 242.839844 353.203125 258.175781 L 353.203125 275.9375 C 353.203125 285.730469 353.203125 293.703125 353.605469 298.050781 C 353.90625 300.773438 354.621094 302.578125 357.644531 302.992188 C 359.054688 303.195313 361.269531 303.402344 362.785156 303.402344 C 363.910156 303.402344 364.402344 303.691406 364.402344 304.199219 C 364.402344 304.910156 363.59375 305.199219 362.488281 305.199219 C 355.828125 305.199219 349.46875 304.910156 346.746094 304.910156 C 344.414063 304.910156 338.0625 305.199219 334.027344 305.199219 C 332.710938 305.199219 332.011719 304.910156 332.011719 304.199219 C 332.011719 303.691406 332.410156 303.402344 333.628906 303.402344 C 335.132813 303.402344 336.347656 303.195313 337.253906 302.992188 C 339.277344 302.578125 339.875 300.863281 340.1875 297.941406 C 340.695313 293.703125 340.695313 285.730469 340.695313 275.9375 L 340.695313 258.175781 "/>
<path style=" stroke:none;fill-rule:nonzero;fill:rgb(37.254333%,37.646484%,38.430786%);fill-opacity:1;" d="M 153.25 267.964844 C 151.136719 266.457031 148.816406 265.75 144.878906 265.539063 C 143.054688 265.433594 142.054688 265.433594 140.53125 265.433594 C 140.132813 265.433594 139.925781 265.648438 139.925781 266.148438 L 139.925781 290.078125 C 139.925781 296.734375 140.230469 298.449219 143.464844 299.753906 C 146.183594 300.863281 148.515625 300.976563 150.832031 300.976563 C 155.375 300.976563 163.042969 298.546875 163.042969 288.039063 C 163.042969 281.792969 160.917969 273.304688 153.25 267.964844 Z M 139.925781 259.886719 C 139.925781 260.699219 140.230469 260.898438 140.640625 261.003906 C 141.546875 261.203125 143.054688 261.296875 145.378906 261.296875 C 148.707031 261.296875 150.929688 260.898438 152.652344 259.382813 C 155.265625 257.265625 156.789063 253.628906 156.789063 248.691406 C 156.789063 241.925781 152.851563 233.035156 144.164063 233.035156 C 142.753906 233.035156 141.847656 233.035156 140.832031 233.246094 C 140.132813 233.445313 139.925781 233.84375 139.925781 234.957031 Z M 127.8125 258.175781 C 127.8125 242.839844 127.8125 240.003906 127.613281 236.78125 C 127.414063 233.351563 126.605469 231.734375 123.273438 231.023438 C 122.46875 230.824219 120.746094 230.71875 119.347656 230.71875 C 118.222656 230.71875 117.621094 230.519531 117.621094 229.816406 C 117.621094 229.105469 118.332031 228.90625 119.835938 228.90625 C 125.191406 228.90625 131.558594 229.207031 133.574219 229.207031 C 138.519531 229.207031 142.449219 228.90625 145.882813 228.90625 C 164.15625 228.90625 167.378906 238.6875 167.378906 244.039063 C 167.378906 252.3125 162.632813 257.265625 157.082031 261.710938 C 165.363281 264.535156 175.460938 271.695313 175.460938 283.507813 C 175.460938 294.300781 167.078125 305.507813 148.515625 305.507813 C 146.085938 305.507813 136.894531 304.910156 133.871094 304.910156 C 131.558594 304.910156 125.191406 305.199219 121.15625 305.199219 C 119.835938 305.199219 119.140625 304.910156 119.140625 304.199219 C 119.140625 303.691406 119.539063 303.402344 120.746094 303.402344 C 122.269531 303.402344 123.476563 303.195313 124.382813 302.992188 C 126.398438 302.578125 126.90625 300.367188 127.304688 297.429688 C 127.8125 293.203125 127.8125 285.222656 127.8125 275.9375 L 127.8125 258.175781 "/>
<path style=" stroke:none;fill-rule:nonzero;fill:rgb(37.254333%,37.646484%,38.430786%);fill-opacity:1;" d="M 215.472656 273.824219 C 215.988281 273.824219 216.089844 273.519531 215.988281 273.214844 L 206.898438 248.277344 C 206.800781 247.878906 206.703125 247.371094 206.402344 247.371094 C 206.101563 247.371094 205.882813 247.878906 205.785156 248.277344 L 196.511719 273.109375 C 196.402344 273.519531 196.511719 273.824219 196.910156 273.824219 Z M 194.894531 278.871094 C 194.386719 278.871094 194.179688 279.0625 193.988281 279.679688 L 188.527344 294.101563 C 187.523438 296.625 187.019531 299.054688 187.019531 300.261719 C 187.019531 302.085938 187.925781 303.402344 191.054688 303.402344 L 192.574219 303.402344 C 193.78125 303.402344 194.082031 303.59375 194.082031 304.199219 C 194.082031 305.007813 193.480469 305.199219 192.363281 305.199219 C 189.136719 305.199219 184.796875 304.910156 181.667969 304.910156 C 180.558594 304.910156 175.007813 305.199219 169.761719 305.199219 C 168.441406 305.199219 167.84375 305.007813 167.84375 304.199219 C 167.84375 303.59375 168.242188 303.402344 169.050781 303.402344 C 169.953125 303.402344 171.378906 303.292969 172.179688 303.195313 C 176.824219 302.578125 178.746094 299.152344 180.757813 294.101563 L 206.101563 230.71875 C 207.304688 227.789063 207.90625 226.6875 208.914063 226.6875 C 209.828125 226.6875 210.4375 227.601563 211.449219 229.914063 C 213.867188 235.464844 230.015625 276.648438 236.476563 291.988281 C 240.304688 301.074219 243.234375 302.488281 245.359375 302.992188 C 246.867188 303.292969 248.386719 303.402344 249.59375 303.402344 C 250.402344 303.402344 250.910156 303.496094 250.910156 304.199219 C 250.910156 305.007813 249.992188 305.199219 246.261719 305.199219 C 242.636719 305.199219 235.261719 305.199219 227.1875 305.007813 C 225.378906 304.910156 224.15625 304.910156 224.15625 304.199219 C 224.15625 303.59375 224.554688 303.402344 225.570313 303.292969 C 226.28125 303.085938 226.984375 302.183594 226.488281 300.976563 L 218.40625 279.570313 C 218.203125 279.0625 217.902344 278.871094 217.40625 278.871094 L 194.894531 278.871094 "/>
<path style=" stroke:none;fill-rule:nonzero;fill:rgb(37.254333%,37.646484%,38.430786%);fill-opacity:1;" d="M 585.074219 273.824219 C 585.585938 273.824219 585.679688 273.519531 585.585938 273.214844 L 576.5 248.277344 C 576.394531 247.878906 576.296875 247.371094 575.992188 247.371094 C 575.691406 247.371094 575.484375 247.878906 575.378906 248.277344 L 566.101563 273.109375 C 566.003906 273.519531 566.101563 273.824219 566.511719 273.824219 Z M 564.484375 278.871094 C 563.988281 278.871094 563.769531 279.0625 563.578125 279.679688 L 558.132813 294.101563 C 557.117188 296.625 556.609375 299.054688 556.609375 300.261719 C 556.609375 302.085938 557.515625 303.402344 560.65625 303.402344 L 562.171875 303.402344 C 563.371094 303.402344 563.675781 303.59375 563.675781 304.199219 C 563.675781 305.007813 563.070313 305.199219 561.964844 305.199219 C 558.734375 305.199219 554.398438 304.910156 551.265625 304.910156 C 550.160156 304.910156 544.597656 305.199219 539.355469 305.199219 C 538.046875 305.199219 537.4375 305.007813 537.4375 304.199219 C 537.4375 303.59375 537.839844 303.402344 538.648438 303.402344 C 539.554688 303.402344 540.96875 303.292969 541.777344 303.195313 C 546.414063 302.578125 548.335938 299.152344 550.355469 294.101563 L 575.691406 230.71875 C 576.90625 227.789063 577.503906 226.6875 578.511719 226.6875 C 579.429688 226.6875 580.027344 227.601563 581.042969 229.914063 C 583.457031 235.464844 599.617188 276.648438 606.066406 291.988281 C 609.90625 301.074219 612.828125 302.488281 614.949219 302.992188 C 616.472656 303.292969 617.976563 303.402344 619.195313 303.402344 C 620 303.402344 620.5 303.496094 620.5 304.199219 C 620.5 305.007813 619.59375 305.199219 615.863281 305.199219 C 612.226563 305.199219 604.859375 305.199219 596.785156 305.007813 C 594.972656 304.910156 593.746094 304.910156 593.746094 304.199219 C 593.746094 303.59375 594.160156 303.402344 595.160156 303.292969 C 595.878906 303.085938 596.585938 302.183594 596.078125 300.976563 L 588.003906 279.570313 C 587.804688 279.0625 587.492188 278.871094 586.984375 278.871094 L 564.484375 278.871094 "/>
<path style=" stroke:none;fill-rule:nonzero;fill:rgb(37.254333%,37.646484%,38.430786%);fill-opacity:1;" d="M 262.105469 291.480469 C 262.316406 299.359375 263.628906 301.988281 265.644531 302.691406 C 267.359375 303.292969 269.273438 303.402344 270.898438 303.402344 C 272.003906 303.402344 272.613281 303.59375 272.613281 304.199219 C 272.613281 305.007813 271.703125 305.199219 270.292969 305.199219 C 263.726563 305.199219 259.691406 304.910156 257.769531 304.910156 C 256.863281 304.910156 252.117188 305.199219 246.867188 305.199219 C 245.558594 305.199219 244.648438 305.109375 244.648438 304.199219 C 244.648438 303.59375 245.257813 303.402344 246.261719 303.402344 C 247.574219 303.402344 249.386719 303.292969 250.800781 302.882813 C 253.429688 302.085938 253.832031 299.152344 253.941406 290.367188 L 254.847656 230.609375 C 254.847656 228.605469 255.148438 227.191406 256.164063 227.191406 C 257.269531 227.191406 258.167969 228.5 259.890625 230.320313 C 261.101563 231.636719 276.441406 248.078125 291.175781 262.71875 C 298.050781 269.585938 311.671875 284.113281 313.386719 285.730469 L 313.894531 285.730469 L 312.878906 240.414063 C 312.785156 234.257813 311.871094 232.335938 309.449219 231.320313 C 307.941406 230.71875 305.511719 230.71875 304.101563 230.71875 C 302.886719 230.71875 302.480469 230.421875 302.480469 229.816406 C 302.480469 229.003906 303.59375 228.90625 305.101563 228.90625 C 310.355469 228.90625 315.199219 229.207031 317.3125 229.207031 C 318.4375 229.207031 322.265625 228.90625 327.21875 228.90625 C 328.519531 228.90625 329.535156 229.003906 329.535156 229.816406 C 329.535156 230.421875 328.929688 230.71875 327.710938 230.71875 C 326.710938 230.71875 325.898438 230.71875 324.6875 231.023438 C 321.867188 231.828125 321.058594 233.953125 320.960938 239.605469 L 319.835938 303.292969 C 319.835938 305.507813 319.4375 306.421875 318.53125 306.421875 C 317.425781 306.421875 316.207031 305.304688 315.097656 304.199219 C 308.75 298.148438 295.828125 284.921875 285.324219 274.523438 C 274.328125 263.617188 263.121094 251.007813 261.308594 249.09375 L 260.992188 249.09375 L 262.105469 291.480469 "/>
<path style=" stroke:none;fill-rule:nonzero;fill:rgb(37.254333%,37.646484%,38.430786%);fill-opacity:1;" d="M 421.363281 258.175781 C 421.363281 242.839844 421.363281 240.003906 421.15625 236.78125 C 420.957031 233.351563 419.949219 231.636719 417.738281 231.121094 C 416.621094 230.824219 415.304688 230.71875 414.097656 230.71875 C 413.089844 230.71875 412.484375 230.519531 412.484375 229.710938 C 412.484375 229.105469 413.289063 228.90625 414.914063 228.90625 C 418.730469 228.90625 425.09375 229.207031 428.027344 229.207031 C 430.542969 229.207031 436.507813 228.90625 440.34375 228.90625 C 441.652344 228.90625 442.449219 229.105469 442.449219 229.710938 C 442.449219 230.519531 441.847656 230.71875 440.839844 230.71875 C 439.828125 230.71875 439.03125 230.824219 437.816406 231.023438 C 435.09375 231.527344 434.285156 233.246094 434.078125 236.78125 C 433.875 240.003906 433.875 242.839844 433.875 258.175781 L 433.875 275.9375 C 433.875 285.730469 433.875 293.703125 434.285156 298.050781 C 434.589844 300.773438 435.289063 302.578125 438.324219 302.992188 C 439.730469 303.195313 441.953125 303.402344 443.464844 303.402344 C 444.582031 303.402344 445.082031 303.691406 445.082031 304.199219 C 445.082031 304.910156 444.273438 305.199219 443.164063 305.199219 C 436.507813 305.199219 430.144531 304.910156 427.425781 304.910156 C 425.09375 304.910156 418.730469 305.199219 414.707031 305.199219 C 413.390625 305.199219 412.683594 304.910156 412.683594 304.199219 C 412.683594 303.691406 413.089844 303.402344 414.296875 303.402344 C 415.816406 303.402344 417.027344 303.195313 417.933594 302.992188 C 419.949219 302.578125 420.566406 300.863281 420.859375 297.941406 C 421.363281 293.703125 421.363281 285.730469 421.363281 275.9375 L 421.363281 258.175781 "/>
<path style=" stroke:none;fill-rule:nonzero;fill:rgb(37.254333%,37.646484%,38.430786%);fill-opacity:1;" d="M 448.5625 303.992188 C 446.949219 303.292969 446.640625 302.785156 446.640625 300.5625 C 446.640625 295.015625 447.039063 288.957031 447.148438 287.351563 C 447.257813 285.835938 447.554688 284.730469 448.355469 284.730469 C 449.273438 284.730469 449.371094 285.632813 449.371094 286.433594 C 449.371094 287.75 449.78125 289.875 450.277344 291.585938 C 452.5 299.054688 458.453125 301.78125 464.710938 301.78125 C 473.792969 301.78125 478.242188 295.621094 478.242188 290.265625 C 478.242188 285.320313 476.726563 280.585938 468.34375 274.125 L 463.707031 270.484375 C 452.601563 261.804688 448.765625 254.738281 448.765625 246.5625 C 448.765625 235.464844 458.050781 227.492188 472.082031 227.492188 C 478.636719 227.492188 482.878906 228.5 485.503906 229.207031 C 486.414063 229.414063 486.914063 229.710938 486.914063 230.421875 C 486.914063 231.734375 486.511719 234.65625 486.511719 242.523438 C 486.511719 244.753906 486.207031 245.550781 485.410156 245.550781 C 484.699219 245.550781 484.390625 244.957031 484.390625 243.742188 C 484.390625 242.839844 483.890625 239.703125 481.773438 237.082031 C 480.253906 235.160156 477.324219 232.136719 470.765625 232.136719 C 463.296875 232.136719 458.753906 236.476563 458.753906 242.523438 C 458.753906 247.167969 461.074219 250.707031 469.457031 257.070313 L 472.277344 259.183594 C 484.390625 268.570313 488.835938 275.339844 488.835938 284.921875 C 488.835938 290.78125 486.613281 297.742188 479.347656 302.488281 C 474.300781 305.722656 468.648438 306.628906 463.296875 306.628906 C 457.445313 306.628906 452.910156 305.910156 448.5625 303.992188 "/>
<path style=" stroke:none;fill-rule:nonzero;fill:rgb(37.254333%,37.646484%,38.430786%);fill-opacity:1;" d="M 511.363281 275.9375 C 511.363281 288.859375 511.363281 295.816406 513.480469 297.640625 C 515.199219 299.152344 517.816406 299.855469 525.691406 299.855469 C 531.046875 299.855469 534.976563 299.753906 537.503906 297.035156 C 538.710938 295.726563 539.929688 292.894531 540.121094 290.972656 C 540.226563 290.078125 540.433594 289.46875 541.234375 289.46875 C 541.941406 289.46875 542.050781 289.964844 542.050781 291.179688 C 542.050781 292.289063 541.34375 299.855469 540.535156 302.785156 C 539.929688 305.007813 539.421875 305.507813 534.175781 305.507813 C 519.640625 305.507813 512.972656 304.910156 504.796875 304.910156 C 502.476563 304.910156 496.125 305.199219 492.082031 305.199219 C 490.773438 305.199219 490.0625 304.910156 490.0625 304.199219 C 490.0625 303.691406 490.472656 303.402344 491.679688 303.402344 C 493.195313 303.402344 494.40625 303.195313 495.3125 302.992188 C 497.332031 302.578125 497.839844 300.367188 498.238281 297.429688 C 498.742188 293.203125 498.742188 285.222656 498.742188 275.9375 L 498.742188 258.175781 C 498.742188 242.839844 498.742188 240.003906 498.550781 236.78125 C 498.347656 233.351563 497.535156 231.734375 494.203125 231.023438 C 493.398438 230.824219 492.175781 230.71875 490.875 230.71875 C 489.765625 230.71875 489.15625 230.519531 489.15625 229.816406 C 489.15625 229.105469 489.867188 228.90625 491.378906 228.90625 C 496.125 228.90625 502.476563 229.207031 505.207031 229.207031 C 507.628906 229.207031 515 228.90625 518.933594 228.90625 C 520.347656 228.90625 521.054688 229.105469 521.054688 229.816406 C 521.054688 230.519531 520.449219 230.71875 519.230469 230.71875 C 518.121094 230.71875 516.511719 230.824219 515.296875 231.023438 C 512.566406 231.527344 511.765625 233.246094 511.558594 236.78125 C 511.363281 240.003906 511.363281 242.839844 511.363281 258.175781 L 511.363281 275.9375 "/>
<path style=" stroke:none;fill-rule:nonzero;fill:rgb(37.254333%,37.646484%,38.430786%);fill-opacity:1;" d="M 632.15625 229.304688 C 632.445313 227.601563 633.0625 226.6875 633.871094 226.6875 C 634.679688 226.6875 635.28125 227.191406 636.589844 229.816406 L 664.148438 286.738281 L 691.601563 229.105469 C 692.308594 227.492188 692.917969 226.6875 693.824219 226.6875 C 694.734375 226.6875 695.335938 227.699219 695.636719 229.816406 L 704.828125 292.191406 C 705.730469 298.546875 706.746094 301.46875 709.777344 302.375 C 712.699219 303.292969 714.71875 303.402344 716.027344 303.402344 C 716.9375 303.402344 717.640625 303.496094 717.640625 304.101563 C 717.640625 304.910156 716.429688 305.199219 715.019531 305.199219 C 712.496094 305.199219 698.5625 304.910156 694.53125 304.605469 C 692.210938 304.402344 691.601563 304.101563 691.601563 303.496094 C 691.601563 302.992188 692.007813 302.691406 692.714844 302.375 C 693.316406 302.183594 693.617188 300.863281 693.222656 298.050781 L 687.15625 253.628906 L 686.757813 253.628906 L 664.753906 299.457031 C 662.433594 304.199219 661.933594 305.109375 661.019531 305.109375 C 660.109375 305.109375 659.101563 303.085938 657.484375 300.0625 C 655.066406 295.417969 647.089844 279.972656 645.875 277.144531 C 644.96875 275.023438 638.914063 262.3125 635.378906 254.738281 L 634.976563 254.738281 L 629.738281 294.910156 C 629.535156 296.734375 629.425781 298.050781 629.425781 299.65625 C 629.425781 301.566406 630.734375 302.488281 632.445313 302.882813 C 634.273438 303.292969 635.683594 303.402344 636.695313 303.402344 C 637.5 303.402344 638.210938 303.59375 638.210938 304.101563 C 638.210938 305.007813 637.300781 305.199219 635.785156 305.199219 C 631.550781 305.199219 627.003906 304.910156 625.199219 304.910156 C 623.273438 304.910156 618.429688 305.199219 615.199219 305.199219 C 614.183594 305.199219 613.375 305.007813 613.375 304.101563 C 613.375 303.59375 613.980469 303.402344 614.988281 303.402344 C 615.808594 303.402344 616.503906 303.402344 618.019531 303.085938 C 620.851563 302.488281 621.660156 298.546875 622.167969 295.117188 L 632.15625 229.304688 "/>
<path style=" stroke:none;fill-rule:nonzero;fill:rgb(77.645874%,4.705811%,27.450562%);fill-opacity:1;" d="M 481.183594 338.097656 C 418.945313 337.253906 368.234375 303.101563 368.015625 262.878906 C 367.796875 223.820313 415.554688 193.699219 474.613281 194.605469 C 481.878906 194.707031 488.992188 195.289063 495.894531 196.265625 C 486.484375 194.570313 476.652344 193.578125 466.558594 193.421875 C 403.851563 192.46875 352.949219 224.019531 352.949219 265.007813 C 352.949219 307.265625 406.742188 343.222656 472.996094 344.105469 C 526.878906 344.828125 570.558594 322.027344 582.835938 290.636719 C 569.640625 318.734375 529.84375 338.753906 481.183594 338.097656 "/>
</g>
</svg>
