<?xml version="1.0" encoding="UTF-8"?>
<svg xmlns="http://www.w3.org/2000/svg" xmlns:xlink="http://www.w3.org/1999/xlink" width="613.85pt" height="166.98pt" viewBox="0 0 613.85 166.98" version="1.1">
<defs>
<clipPath id="clip1">
  <path d="M 446 0 L 613.851563 0 L 613.851563 166.980469 L 446 166.980469 Z M 446 0 "/>
</clipPath>
</defs>
<g id="surface1">
<g clip-path="url(#clip1)" clip-rule="nonzero">
<path style=" stroke:none;fill-rule:evenodd;fill:rgb(0%,57.299805%,29.798889%);fill-opacity:1;" d="M 464.023438 -0.00390625 L 596.695313 -0.00390625 C 606.167969 -0.00390625 613.851563 7.675781 613.851563 17.152344 L 613.851563 149.824219 C 613.851563 159.296875 606.167969 166.980469 596.695313 166.980469 L 464.023438 166.980469 C 454.546875 166.980469 446.867188 159.296875 446.867188 149.824219 L 446.867188 17.152344 C 446.867188 7.675781 454.546875 -0.00390625 464.023438 -0.00390625 "/>
</g>
<path style=" stroke:none;fill-rule:evenodd;fill:rgb(100%,100%,100%);fill-opacity:1;" d="M 535.367188 28.132813 L 544.140625 36.691406 L 489.128906 36.691406 C 489.128906 36.691406 484.507813 37.167969 483.785156 40.59375 C 483.070313 44.019531 483.785156 45.457031 483.785156 45.457031 L 475.019531 53.507813 L 475.019531 37.167969 C 475.019531 37.167969 477.652344 28.132813 486.972656 28.132813 Z M 495.246094 40.074219 L 507.496094 39.925781 L 468.597656 78.820313 C 468.597656 78.820313 465.667969 82.429688 467.582031 85.359375 C 469.496094 88.292969 471.019531 88.800781 471.019531 88.800781 L 470.511719 100.691406 L 458.960938 89.140625 C 458.960938 89.140625 454.433594 80.886719 461.023438 74.296875 Z M 474.914063 77.230469 L 483.472656 68.460938 L 483.472656 123.472656 C 483.472656 123.472656 483.949219 128.09375 487.378906 128.8125 C 490.804688 129.53125 492.238281 128.8125 492.238281 128.8125 L 500.289063 137.582031 L 483.949219 137.582031 C 483.949219 137.582031 474.914063 134.945313 474.914063 125.625 Z M 488.59375 118.511719 L 488.441406 106.261719 L 527.339844 145.15625 C 527.339844 145.15625 530.945313 148.089844 533.878906 146.171875 C 536.808594 144.261719 537.316406 142.738281 537.316406 142.738281 L 549.207031 143.246094 L 537.652344 154.796875 C 537.652344 154.796875 529.402344 159.320313 522.8125 152.734375 Z M 585.332031 88.585938 L 576.777344 97.359375 L 576.777344 42.347656 C 576.777344 42.347656 576.300781 37.722656 572.871094 37.007813 C 569.445313 36.285156 568.007813 37.007813 568.007813 37.007813 L 559.960938 28.238281 L 576.300781 28.238281 C 576.300781 28.238281 585.332031 30.871094 585.332031 40.191406 Z M 571.660156 48.464844 L 571.808594 60.714844 L 532.914063 21.816406 C 532.914063 21.816406 529.304688 18.886719 526.371094 20.800781 C 523.441406 22.714844 522.933594 24.238281 522.933594 24.238281 L 511.039063 23.730469 L 522.59375 12.175781 C 522.59375 12.175781 530.847656 7.652344 537.4375 14.242188 Z M 565.472656 124.785156 L 553.222656 124.9375 L 592.117188 86.039063 C 592.117188 86.039063 595.050781 82.433594 593.136719 79.5 C 591.21875 76.570313 589.695313 76.0625 589.695313 76.0625 L 590.203125 64.171875 L 601.757813 75.722656 C 601.757813 75.722656 606.28125 83.976563 599.691406 90.566406 Z M 524.8125 137.671875 L 516.046875 129.117188 L 571.054688 129.117188 C 571.054688 129.117188 575.679688 128.640625 576.394531 125.210938 C 577.113281 121.785156 576.394531 120.351563 576.394531 120.351563 L 585.164063 112.296875 L 585.164063 128.640625 C 585.164063 128.640625 582.53125 137.671875 573.210938 137.671875 Z M 550.058594 55.480469 L 561.039063 55.480469 L 561.039063 110.972656 L 502.085938 110.972656 L 502.085938 101.144531 L 550.058594 101.144531 Z M 546.304688 55.480469 L 546.304688 96.519531 L 502.085938 96.519531 L 502.085938 86.117188 L 535.609375 86.117188 L 535.609375 55.480469 Z M 531.273438 55.480469 L 531.273438 81.492188 L 502.085938 81.492188 L 502.085938 71.667969 L 520.871094 71.667969 L 520.871094 55.480469 Z M 502.085938 55.074219 L 503.640625 55.074219 L 503.570313 56.382813 C 503.570313 56.382813 504.261719 55.011719 504.765625 55.007813 L 515.390625 55.007813 L 515.390625 56.125 L 505.097656 56.121094 C 505.097656 56.121094 503.863281 58.691406 503.769531 61.605469 C 503.640625 65.765625 504.832031 67.089844 504.832031 67.089844 L 515.523438 67.089844 L 515.457031 68.414063 L 504.699219 68.414063 C 504.699219 68.414063 504.167969 68.28125 503.769531 67.222656 L 503.769531 68.214844 L 502.085938 68.214844 Z M 505.488281 66.320313 L 505.488281 57.984375 C 505.488281 57.984375 505.796875 57.109375 506.5625 57.109375 L 515.429688 57.109375 L 515.429688 58.441406 L 506.742188 58.441406 L 506.742188 60.058594 L 515.429688 60.058594 L 515.429688 61.378906 L 506.742188 61.378906 L 506.742188 66.320313 Z M 507.832031 61.730469 L 508.988281 61.730469 L 508.988281 63.945313 L 514.175781 63.945313 L 514.175781 61.695313 L 515.390625 61.695313 L 515.390625 66.355469 L 514.140625 66.355469 L 514.140625 65.03125 L 508.921875 65.03125 L 508.921875 66.355469 L 507.832031 66.355469 Z M 520.199219 75.222656 L 528.902344 75.222656 C 528.902344 75.222656 528.683594 76.261719 527.675781 76.363281 C 526.664063 76.464844 525.785156 75.453125 524.238281 76.058594 C 522.695313 76.667969 522.292969 77.726563 522.292969 77.726563 C 522.292969 77.726563 521.28125 76.867188 520.878906 76.363281 C 520.476563 75.859375 520.199219 75.222656 520.199219 75.222656 M 523.253906 72.597656 C 523.253906 72.597656 523.222656 71.355469 523.707031 69.742188 C 524.191406 68.125 525.300781 67.113281 525.300781 67.113281 C 525.300781 67.113281 525.25 68.074219 525.402344 68.679688 C 525.554688 69.285156 526.210938 70.125 526.210938 70.125 C 526.210938 70.125 526.5625 68.933594 527.070313 68.226563 C 527.574219 67.519531 528.128906 67.015625 528.128906 67.015625 C 528.128906 67.015625 527.675781 69.367188 527.875 70.375 C 528.078125 71.386719 528.480469 72.648438 528.480469 72.648438 Z M 523.253906 78.28125 C 523.253906 78.28125 523.535156 77.019531 524.796875 77.019531 C 526.0625 77.019531 526.261719 77.523438 527.320313 77.320313 C 528.382813 77.121094 529.066406 76.816406 529.066406 76.816406 C 529.066406 76.816406 528.328125 77.929688 527.117188 78.078125 C 525.90625 78.230469 525.53125 77.472656 524.546875 77.675781 C 523.554688 77.878906 523.253906 78.28125 523.253906 78.28125 M 524.007813 79.21875 C 524.007813 79.21875 524.289063 78.484375 525.351563 78.484375 C 526.414063 78.484375 526.511719 78.9375 527.171875 78.886719 C 527.824219 78.835938 528.382813 78.484375 528.382813 78.484375 C 528.382813 78.484375 527.773438 79.421875 526.964844 79.472656 C 526.160156 79.523438 525.554688 78.988281 525 79.039063 C 524.441406 79.089844 524.007813 79.21875 524.007813 79.21875 M 512.632813 74.628906 L 517.1875 74.628906 L 517.1875 79.035156 L 512.632813 79.035156 Z M 512.632813 89.078125 L 517.183594 89.078125 L 517.183594 93.488281 L 512.632813 93.488281 Z M 519.859375 89.078125 L 524.410156 89.078125 L 524.410156 93.488281 L 519.859375 93.488281 Z M 538.800781 76.230469 L 542.628906 76.230469 L 544.300781 94.488281 L 537.042969 94.488281 Z M 540.789063 75.355469 C 542.222656 75.355469 543.980469 74.234375 544.0625 71.609375 C 544.125 69.519531 541.425781 67.230469 541.027344 66.027344 C 540.632813 64.828125 540.550781 64.191406 540.550781 64.191406 C 540.550781 64.191406 539.773438 65.339844 539.4375 66.507813 C 539.117188 67.621094 536.484375 69.6875 536.964844 72.164063 C 537.304688 73.929688 538.5625 75.355469 540.789063 75.355469 M 539.460938 108.847656 C 539.460938 108.847656 541.972656 105.578125 545.761719 105.578125 C 549.546875 105.578125 552.429688 108.722656 552.429688 108.722656 Z M 546.921875 101.664063 C 546.921875 101.664063 545.632813 101.839844 545.632813 102.9375 C 545.632813 104.03125 546.855469 104.355469 546.855469 104.355469 C 546.855469 104.355469 546.148438 103.757813 546.273438 102.871094 C 546.40625 101.988281 546.921875 101.664063 546.921875 101.664063 M 512.425781 107.109375 L 518.789063 107.109375 L 518.789063 103.578125 L 525.199219 103.578125 L 525.199219 104.808594 L 520.769531 104.808594 L 520.769531 107.171875 L 525.007813 107.171875 L 525.007813 108.589844 L 512.425781 108.589844 Z M 553.671875 89.875 L 557.140625 89.875 L 557.140625 108.804688 L 553.671875 108.804688 Z M 553.671875 76.105469 L 557.140625 76.105469 L 557.140625 84.375 L 553.671875 84.375 Z M 552.515625 71.523438 L 558.292969 71.523438 L 558.292969 74.847656 L 552.515625 74.847656 Z M 552.515625 85.25 L 558.292969 85.25 L 558.292969 88.570313 L 552.515625 88.570313 Z M 553.964844 70.65625 L 553.964844 67.765625 C 553.964844 67.765625 554.105469 66.175781 555.695313 66.175781 C 557.285156 66.175781 557.140625 67.621094 557.140625 67.621094 L 557.140625 70.65625 Z M 556.023438 62.070313 C 556.023438 62.070313 554.734375 62.246094 554.734375 63.34375 C 554.734375 64.4375 555.960938 64.761719 555.960938 64.761719 C 555.960938 64.761719 555.25 64.164063 555.382813 63.277344 C 555.507813 62.394531 556.023438 62.070313 556.023438 62.070313 "/>
<path style=" stroke:none;fill-rule:evenodd;fill:rgb(0%,57.299805%,29.798889%);fill-opacity:1;" d="M 96.320313 126.953125 C 96.714844 126.277344 96.914063 125.25 96.914063 123.871094 L 96.914063 120.878906 C 96.578125 121.21875 96.203125 121.425781 95.699219 121.5 C 95.195313 121.578125 94.640625 121.753906 94.03125 122.027344 C 93.390625 122.335938 92.945313 122.742188 92.703125 123.25 C 92.460938 123.753906 92.339844 124.421875 92.339844 125.25 C 92.339844 126.078125 92.519531 126.734375 92.886719 127.226563 C 93.253906 127.714844 93.738281 127.964844 94.351563 127.964844 C 95.265625 127.964844 95.921875 127.625 96.320313 126.953125 M 97.097656 131.5625 L 96.914063 130.085938 C 96.359375 131.191406 95.636719 132.023438 94.644531 132.578125 C 93.648438 133.128906 92.511719 133.40625 91.226563 133.40625 C 89.972656 133.40625 88.910156 133.25 88.039063 132.925781 C 87.167969 132.601563 86.457031 132.121094 85.910156 131.476563 C 85.359375 130.832031 84.960938 130.066406 84.714844 129.175781 C 84.472656 128.285156 84.347656 127.304688 84.347656 126.230469 C 84.347656 125.0625 84.464844 124.050781 84.695313 123.191406 C 84.921875 122.332031 85.296875 121.585938 85.816406 120.960938 C 86.335938 120.332031 87.039063 119.792969 87.925781 119.347656 C 88.8125 118.902344 89.914063 118.527344 91.226563 118.222656 L 94.480469 117.4375 C 95.367188 117.222656 95.996094 116.910156 96.359375 116.496094 C 96.730469 116.082031 96.914063 115.488281 96.914063 114.722656 C 96.914063 113.1875 96.214844 112.421875 94.8125 112.421875 C 94.023438 112.421875 93.441406 112.640625 93.078125 113.082031 C 92.710938 113.519531 92.511719 114.390625 92.484375 115.6875 L 85.292969 115.6875 C 85.292969 113.886719 85.617188 112.4375 86.261719 111.351563 C 86.90625 110.265625 87.703125 109.425781 88.65625 108.828125 C 89.605469 108.230469 90.636719 107.835938 91.742188 107.636719 C 92.847656 107.4375 93.875 107.339844 94.828125 107.339844 C 96.269531 107.339844 97.597656 107.453125 98.808594 107.683594 C 100.023438 107.914063 101.066406 108.328125 101.941406 108.929688 C 102.816406 109.527344 103.492188 110.339844 103.96875 111.367188 C 104.445313 112.398438 104.683594 113.726563 104.683594 115.351563 L 104.683594 127.511719 C 104.683594 128.679688 104.730469 129.707031 104.820313 130.597656 C 104.914063 131.488281 105.128906 132.253906 105.464844 132.898438 L 97.421875 132.898438 C 97.265625 132.46875 97.160156 132.023438 97.097656 131.5625 M 10.335938 100.003906 L 10.335938 112.628906 L 16.777344 100.003906 L 25.894531 100.003906 L 17.605469 114.378906 L 26.910156 132.898438 L 17.148438 132.898438 L 12.128906 121.429688 L 10.335938 124.191406 L 10.335938 132.898438 L 1.765625 132.898438 L 1.765625 100.003906 Z M 35.640625 107.988281 L 35.640625 124.433594 C 35.640625 125.476563 35.792969 126.230469 36.101563 126.691406 C 36.410156 127.152344 36.929688 127.382813 37.671875 127.382813 C 38.410156 127.382813 38.933594 127.152344 39.242188 126.691406 C 39.550781 126.230469 39.707031 125.476563 39.707031 124.433594 L 39.707031 107.988281 L 47.984375 107.988281 L 47.984375 132.898438 L 39.996094 132.898438 L 39.980469 129.863281 C 38.875 132.226563 36.859375 133.40625 33.875 133.40625 C 32.949219 133.40625 32.09375 133.324219 31.308594 133.15625 C 30.523438 132.984375 29.839844 132.648438 29.253906 132.140625 C 28.667969 131.636719 28.207031 130.945313 27.867188 130.070313 C 27.53125 129.195313 27.359375 128.097656 27.359375 126.777344 L 27.359375 107.988281 Z M 57.640625 107.988281 L 59.710938 125.902344 L 62.246094 107.988281 L 71.082031 107.988281 L 73.523438 125.902344 L 75.6875 107.988281 L 83.699219 107.988281 L 78.636719 132.898438 L 69.242188 132.898438 L 66.710938 115.265625 L 64.085938 132.898438 L 54.695313 132.898438 L 49.628906 107.988281 Z M 121.425781 107.988281 L 121.425781 100.65625 L 129.707031 100.65625 L 129.707031 107.988281 L 132.976563 107.988281 L 132.976563 113.582031 L 129.707031 113.582031 L 129.707031 125.449219 C 129.707031 126.152344 129.867188 126.65625 130.1875 126.945313 C 130.511719 127.234375 131.007813 127.382813 131.6875 127.382813 L 132.976563 127.382813 L 132.976563 132.898438 C 132.210938 132.898438 131.441406 132.921875 130.671875 132.972656 C 129.90625 133.019531 129.171875 133.046875 128.464844 133.046875 C 127.207031 133.046875 126.132813 132.988281 125.246094 132.882813 C 124.355469 132.777344 123.628906 132.511719 123.058594 132.082031 C 122.492188 131.652344 122.078125 131.015625 121.816406 130.167969 C 121.558594 129.328125 121.425781 128.214844 121.425781 126.835938 L 121.425781 113.582031 L 118.664063 113.582031 L 118.664063 107.988281 Z M 166.574219 100.003906 L 166.574219 106.972656 L 155.664063 106.972656 L 155.664063 112.636719 L 165.886719 112.636719 L 165.886719 119.394531 L 155.664063 119.394531 L 155.664063 132.898438 L 147.09375 132.898438 L 147.09375 100.003906 Z M 188.753906 107.988281 L 188.753906 111.023438 C 189.890625 108.566406 191.90625 107.339844 194.863281 107.339844 C 195.785156 107.339844 196.644531 107.4375 197.429688 107.636719 C 198.214844 107.835938 198.898438 108.195313 199.484375 108.71875 C 200.066406 109.242188 200.53125 109.933594 200.867188 110.792969 C 201.207031 111.652344 201.378906 112.757813 201.378906 114.105469 L 201.378906 132.898438 L 193.097656 132.898438 L 193.097656 116.457031 C 193.097656 115.414063 192.941406 114.664063 192.632813 114.203125 C 192.328125 113.742188 191.804688 113.511719 191.066406 113.511719 C 190.324219 113.511719 189.800781 113.742188 189.492188 114.203125 C 189.183594 114.664063 189.03125 115.414063 189.03125 116.457031 L 189.03125 132.898438 L 180.753906 132.898438 L 180.753906 107.988281 Z M 235.714844 107.988281 L 235.714844 111.023438 C 236.847656 108.566406 238.867188 107.339844 241.820313 107.339844 C 242.746094 107.339844 243.601563 107.4375 244.386719 107.636719 C 245.171875 107.835938 245.855469 108.195313 246.441406 108.71875 C 247.023438 109.242188 247.484375 109.933594 247.824219 110.792969 C 248.164063 111.652344 248.335938 112.757813 248.335938 114.105469 L 248.335938 132.898438 L 240.054688 132.898438 L 240.054688 116.457031 C 240.054688 115.414063 239.902344 114.664063 239.59375 114.203125 C 239.285156 113.742188 238.757813 113.511719 238.019531 113.511719 C 237.28125 113.511719 236.757813 113.742188 236.449219 114.203125 C 236.140625 114.664063 235.988281 115.414063 235.988281 116.457031 L 235.988281 132.898438 L 227.710938 132.898438 L 227.710938 107.988281 Z M 263.855469 115.3125 C 263.765625 114.683594 263.628906 114.171875 263.445313 113.769531 C 263.109375 113.066406 262.503906 112.710938 261.621094 112.710938 C 261.164063 112.710938 260.773438 112.828125 260.453125 113.058594 C 260.136719 113.285156 259.886719 113.699219 259.703125 114.296875 C 259.519531 114.890625 259.390625 115.6875 259.3125 116.683594 C 259.238281 117.675781 259.199219 118.9375 259.199219 120.46875 C 259.199219 122 259.238281 123.261719 259.3125 124.257813 C 259.390625 125.25 259.519531 126.039063 259.703125 126.621094 C 259.886719 127.199219 260.136719 127.605469 260.453125 127.835938 C 260.773438 128.066406 261.164063 128.179688 261.621094 128.179688 C 262.378906 128.179688 262.96875 127.886719 263.378906 127.304688 C 263.789063 126.722656 263.992188 125.648438 263.992188 124.082031 L 263.992188 122.46875 L 271.472656 122.46875 C 271.472656 124.4375 271.308594 126.109375 270.96875 127.492188 C 270.632813 128.878906 270.0625 130.015625 269.269531 130.910156 C 267.703125 132.578125 265.160156 133.40625 261.636719 133.40625 C 260.039063 133.40625 258.585938 133.269531 257.269531 132.996094 C 255.949219 132.714844 254.824219 132.125 253.886719 131.222656 C 252.953125 130.316406 252.226563 129.039063 251.703125 127.398438 C 251.183594 125.753906 250.921875 123.582031 250.921875 120.878906 C 250.921875 117.933594 251.214844 115.570313 251.796875 113.789063 C 252.378906 112.007813 253.164063 110.640625 254.164063 109.6875 C 255.160156 108.734375 256.332031 108.105469 257.679688 107.800781 C 259.027344 107.492188 260.484375 107.339844 262.050781 107.339844 C 263.886719 107.339844 265.410156 107.59375 266.625 108.101563 C 267.835938 108.613281 268.800781 109.320313 269.519531 110.234375 C 270.238281 111.144531 270.746094 112.238281 271.039063 113.515625 C 271.328125 114.792969 271.472656 116.210938 271.472656 117.773438 L 263.992188 117.773438 C 263.992188 116.765625 263.949219 115.941406 263.855469 115.3125 M 316.835938 100.003906 L 316.835938 112.132813 L 322.0625 112.132813 L 322.0625 100.003906 L 330.632813 100.003906 L 330.632813 132.898438 L 322.0625 132.898438 L 322.0625 119.394531 L 316.835938 119.394531 L 316.835938 132.898438 L 308.265625 132.898438 L 308.265625 100.003906 Z M 365.625 107.988281 L 365.625 124.433594 C 365.625 125.476563 365.78125 126.230469 366.089844 126.691406 C 366.394531 127.152344 366.917969 127.382813 367.660156 127.382813 C 368.398438 127.382813 368.921875 127.152344 369.230469 126.691406 C 369.535156 126.230469 369.691406 125.476563 369.691406 124.433594 L 369.691406 107.988281 L 377.96875 107.988281 L 377.96875 132.898438 L 369.980469 132.898438 L 369.96875 129.863281 C 368.863281 132.226563 366.84375 133.40625 363.859375 133.40625 C 362.933594 133.40625 362.078125 133.324219 361.296875 133.15625 C 360.507813 132.984375 359.824219 132.648438 359.242188 132.140625 C 358.65625 131.636719 358.191406 130.945313 357.855469 130.070313 C 357.519531 129.195313 357.347656 128.097656 357.347656 126.777344 L 357.347656 107.988281 Z M 387.804688 126.582031 C 387.898438 127.015625 388.046875 127.367188 388.265625 127.640625 C 388.664063 128.222656 389.246094 128.519531 390.007813 128.519531 C 390.652344 128.519531 391.210938 128.335938 391.683594 127.96875 C 392.160156 127.597656 392.394531 127.078125 392.394531 126.398438 C 392.394531 125.664063 392.09375 125.09375 391.5 124.695313 C 390.902344 124.296875 390.160156 123.941406 389.273438 123.632813 L 386.402344 122.664063 C 385.378906 122.328125 384.421875 121.863281 383.535156 121.277344 C 382.648438 120.691406 381.90625 119.917969 381.308594 118.949219 C 380.710938 117.976563 380.414063 116.707031 380.414063 115.136719 C 380.414063 114.03125 380.609375 113.011719 381.011719 112.070313 C 381.410156 111.128906 382.015625 110.308594 382.832031 109.597656 C 383.644531 108.890625 384.671875 108.339844 385.914063 107.9375 C 387.160156 107.539063 388.621094 107.339844 390.3125 107.339844 C 396.546875 107.339844 399.660156 109.953125 399.660156 115.179688 L 392.46875 115.179688 C 392.46875 114.105469 392.277344 113.378906 391.898438 112.996094 C 391.519531 112.613281 390.980469 112.421875 390.28125 112.421875 C 389.671875 112.421875 389.171875 112.589844 388.777344 112.925781 C 388.382813 113.265625 388.1875 113.742188 388.1875 114.351563 C 388.1875 115.0625 388.484375 115.589844 389.078125 115.941406 C 389.675781 116.296875 390.421875 116.609375 391.304688 116.886719 L 394.175781 117.761719 C 395.199219 118.066406 396.160156 118.503906 397.046875 119.074219 C 397.929688 119.640625 398.671875 120.40625 399.269531 121.375 C 399.867188 122.339844 400.167969 123.621094 400.167969 125.214844 C 400.167969 126.445313 399.9375 127.566406 399.476563 128.578125 C 399.015625 129.589844 398.363281 130.464844 397.519531 131.199219 C 396.675781 131.9375 395.628906 132.488281 394.386719 132.855469 C 393.144531 133.222656 391.742188 133.40625 390.175781 133.40625 C 386.703125 133.40625 384.210938 132.71875 382.691406 131.34375 C 381.171875 129.96875 380.414063 127.921875 380.414063 125.203125 L 387.671875 125.203125 C 387.671875 125.691406 387.714844 126.152344 387.804688 126.582031 M 410.152344 125.121094 C 410.152344 126.464844 410.382813 127.363281 410.839844 127.804688 C 411.296875 128.25 411.816406 128.472656 412.394531 128.472656 C 413.128906 128.472656 413.699219 128.171875 414.109375 127.574219 C 414.519531 126.972656 414.726563 125.832031 414.726563 124.140625 L 422.210938 124.140625 C 422.144531 127.214844 421.363281 129.523438 419.859375 131.078125 C 418.359375 132.632813 415.886719 133.40625 412.457031 133.40625 C 410.460938 133.40625 408.789063 133.183594 407.441406 132.738281 C 406.089844 132.296875 405.003906 131.558594 404.175781 130.53125 C 403.347656 129.5 402.753906 128.15625 402.402344 126.5 C 402.050781 124.84375 401.875 122.828125 401.875 120.46875 C 401.875 118.070313 402.074219 116.042969 402.46875 114.386719 C 402.871094 112.726563 403.5 111.378906 404.355469 110.332031 C 405.214844 109.289063 406.308594 108.527344 407.644531 108.050781 C 408.976563 107.578125 410.578125 107.339844 412.449219 107.339844 C 414.105469 107.339844 415.550781 107.539063 416.792969 107.9375 C 418.035156 108.339844 419.078125 109.007813 419.921875 109.941406 C 420.761719 110.878906 421.390625 112.109375 421.808594 113.632813 C 422.21875 115.152344 422.425781 117.054688 422.425781 119.328125 L 422.425781 121.859375 L 410.152344 121.859375 Z M 414.179688 113.34375 C 413.859375 112.730469 413.257813 112.421875 412.382813 112.421875 C 411.53125 112.421875 410.949219 112.730469 410.632813 113.34375 C 410.3125 113.960938 410.152344 114.929688 410.152344 116.25 L 410.152344 117.359375 L 414.652344 117.359375 L 414.652344 116.25 C 414.652344 114.929688 414.496094 113.960938 414.179688 113.34375 M 421.175781 45.207031 L 421.175781 69.171875 L 346.964844 69.171875 L 346.964844 45.535156 L 362.074219 45.535156 L 362.074219 51.785156 L 355.835938 51.785156 L 355.835938 60.980469 L 380.464844 60.980469 L 380.464844 45.207031 L 387.675781 45.207031 L 387.675781 60.980469 L 396.859375 60.980469 L 396.859375 45.207031 L 404.425781 45.207031 L 404.425781 60.980469 L 413.292969 60.980469 L 413.292969 45.207031 Z M 326.292969 34.054688 L 333.847656 34.054688 L 333.847656 69.167969 L 326.292969 69.167969 Z M 312.503906 33.96875 L 319.710938 33.96875 L 319.710938 69.171875 L 255.390625 69.171875 C 255.390625 69.171875 254.738281 77.402344 248.15625 80.015625 C 241.585938 82.632813 236.660156 80.015625 236.660156 80.015625 C 236.660156 80.015625 240.933594 79.691406 244.875 75.75 C 248.8125 71.804688 247.179688 69.171875 247.179688 69.171875 L 233.714844 69.171875 L 233.714844 45.207031 L 255.390625 45.207031 L 255.390625 60.980469 L 262.925781 60.980469 L 262.925781 45.535156 L 286.234375 45.535156 L 286.234375 60.980469 L 296.40625 60.980469 L 296.40625 45.535156 L 304.617188 45.535156 L 304.617188 60.980469 L 312.503906 60.980469 Z M 240.933594 53.421875 L 248.15625 53.421875 L 248.15625 60.980469 L 240.933594 60.980469 Z M 270.8125 53.421875 L 278.371094 53.421875 L 278.371094 60.980469 L 270.8125 60.980469 Z M 226.8125 45.535156 L 226.8125 69.171875 L 206.792969 69.171875 C 206.792969 69.171875 203.503906 80.828125 193.332031 81 C 173.644531 81.324219 181.855469 55.054688 181.855469 55.054688 C 181.855469 55.054688 180.601563 70.128906 190.367188 70.171875 C 200.898438 70.214844 199.230469 60.980469 199.230469 60.980469 L 199.230469 34.382813 L 207.121094 34.382813 L 207.121094 60.980469 L 218.605469 60.980469 L 218.605469 45.535156 Z M 161.15625 34.054688 L 168.71875 34.054688 L 168.71875 69.167969 L 161.15625 69.167969 Z M 153.929688 34.054688 L 153.929688 69.171875 L 89.339844 69.171875 C 89.339844 69.171875 88.09375 77.019531 83.679688 79.691406 C 79.667969 82.117188 71.203125 81.324219 71.203125 81.324219 C 71.203125 81.324219 77.429688 78.054688 79.414063 75.417969 C 81.390625 72.78125 81.070313 69.171875 81.070313 69.171875 L 67.277344 69.171875 L 67.277344 45.535156 L 89.253906 45.535156 L 89.253906 60.980469 L 131.296875 60.980469 L 131.296875 52.769531 L 103.050781 52.769531 C 103.050781 52.769531 97.796875 52.460938 97.796875 46.863281 C 97.796875 41.265625 102.0625 38.980469 102.0625 38.980469 L 114.546875 28.808594 L 128.984375 28.808594 L 109.300781 44.554688 L 132.277344 44.554688 C 132.277344 44.554688 138.835938 45.207031 139.164063 50.132813 C 139.484375 55.054688 139.164063 60.980469 139.164063 60.980469 L 146.722656 60.980469 L 146.722656 34.054688 Z M 75.167969 52.886719 L 81.433594 52.886719 L 81.433594 60.980469 L 75.167969 60.980469 Z M 60.3125 45.292969 L 60.3125 69.171875 L 30.308594 69.171875 L 30.308594 53.421875 L 22.449219 53.421875 L 22.449219 69.171875 L 0 69.171875 L 0 45.027344 L 9.191406 45.027344 L 9.191406 60.148438 L 15.1875 60.148438 L 15.28125 44.785156 L 38.40625 44.761719 L 38.40625 60.980469 L 52.453125 60.980469 L 52.453125 45.292969 Z M 12.304688 77.464844 C 12.304688 75.09375 14.136719 73.171875 16.382813 73.171875 C 18.632813 73.171875 20.464844 75.09375 20.464844 77.464844 C 20.464844 79.835938 18.632813 81.757813 16.382813 81.757813 C 14.136719 81.757813 12.304688 79.835938 12.304688 77.464844 M 2.851563 77.464844 C 2.851563 75.09375 4.671875 73.171875 6.933594 73.171875 C 9.179688 73.171875 11.007813 75.09375 11.007813 77.464844 C 11.007813 79.835938 9.179688 81.757813 6.933594 81.757813 C 4.671875 81.757813 2.851563 79.835938 2.851563 77.464844 M 29.847656 33.828125 C 29.847656 31.453125 31.671875 29.535156 33.925781 29.535156 C 36.171875 29.535156 38.003906 31.453125 38.003906 33.828125 C 38.003906 36.195313 36.171875 38.117188 33.925781 38.117188 C 31.671875 38.117188 29.847656 36.195313 29.847656 33.828125 M 20.390625 33.828125 C 20.390625 31.453125 22.214844 29.535156 24.46875 29.535156 C 26.714844 29.535156 28.539063 31.453125 28.539063 33.828125 C 28.539063 36.195313 26.714844 38.117188 24.46875 38.117188 C 22.214844 38.117188 20.390625 36.195313 20.390625 33.828125 M 52.195313 77.464844 C 52.195313 75.09375 54.015625 73.171875 56.269531 73.171875 C 58.519531 73.171875 60.339844 75.09375 60.339844 77.464844 C 60.339844 79.835938 58.519531 81.757813 56.269531 81.757813 C 54.015625 81.757813 52.195313 79.835938 52.195313 77.464844 M 42.734375 77.464844 C 42.734375 75.09375 44.558594 73.171875 46.816406 73.171875 C 49.066406 73.171875 50.890625 75.09375 50.890625 77.464844 C 50.890625 79.835938 49.066406 81.757813 46.816406 81.757813 C 44.558594 81.757813 42.734375 79.835938 42.734375 77.464844 M 218.226563 77.464844 C 218.226563 75.09375 220.050781 73.171875 222.300781 73.171875 C 224.554688 73.171875 226.378906 75.09375 226.378906 77.464844 C 226.378906 79.835938 224.554688 81.757813 222.300781 81.757813 C 220.050781 81.757813 218.226563 79.835938 218.226563 77.464844 M 208.769531 77.464844 C 208.769531 75.09375 210.59375 73.171875 212.839844 73.171875 C 215.09375 73.171875 216.925781 75.09375 216.925781 77.464844 C 216.925781 79.835938 215.09375 81.757813 212.839844 81.757813 C 210.59375 81.757813 208.769531 79.835938 208.769531 77.464844 M 395.996094 77.464844 C 395.996094 75.09375 397.816406 73.171875 400.070313 73.171875 C 402.320313 73.171875 404.148438 75.09375 404.148438 77.464844 C 404.148438 79.835938 402.320313 81.757813 400.070313 81.757813 C 397.816406 81.757813 395.996094 79.835938 395.996094 77.464844 M 386.042969 77.464844 C 386.042969 75.09375 387.863281 73.171875 390.117188 73.171875 C 392.371094 73.171875 394.191406 75.09375 394.191406 77.464844 C 394.191406 79.835938 392.371094 81.757813 390.117188 81.757813 C 387.863281 81.757813 386.042969 79.835938 386.042969 77.464844 M 412.65625 77.464844 C 412.65625 75.09375 414.476563 73.171875 416.726563 73.171875 C 418.980469 73.171875 420.8125 75.09375 420.8125 77.464844 C 420.8125 79.835938 418.980469 81.757813 416.726563 81.757813 C 414.476563 81.757813 412.65625 79.835938 412.65625 77.464844 M 368.59375 33.972656 C 368.59375 31.605469 370.414063 29.683594 372.667969 29.683594 C 374.917969 29.683594 376.742188 31.605469 376.742188 33.972656 C 376.742188 36.347656 374.917969 38.265625 372.667969 38.265625 C 370.414063 38.265625 368.59375 36.347656 368.59375 33.972656 M 359.144531 33.972656 C 359.144531 31.605469 360.964844 29.683594 363.214844 29.683594 C 365.464844 29.683594 367.292969 31.605469 367.292969 33.972656 C 367.292969 36.347656 365.464844 38.265625 363.214844 38.265625 C 360.964844 38.265625 359.144531 36.347656 359.144531 33.972656 M 297.355469 33.972656 C 297.355469 31.605469 299.171875 29.683594 301.429688 29.683594 C 303.679688 29.683594 305.507813 31.605469 305.507813 33.972656 C 305.507813 36.347656 303.679688 38.265625 301.429688 38.265625 C 299.171875 38.265625 297.355469 36.347656 297.355469 33.972656 M 287.902344 33.972656 C 287.902344 31.605469 289.726563 29.683594 291.980469 29.683594 C 294.230469 29.683594 296.054688 31.605469 296.054688 33.972656 C 296.054688 36.347656 294.230469 38.265625 291.980469 38.265625 C 289.726563 38.265625 287.902344 36.347656 287.902344 33.972656 M 116.808594 106.175781 L 108.53125 106.175781 L 108.53125 100.003906 L 116.808594 100.003906 Z M 116.808594 132.898438 L 108.53125 132.898438 L 108.53125 107.988281 L 116.808594 107.988281 Z M 177.296875 106.175781 L 169.019531 106.175781 L 169.019531 100.003906 L 177.296875 100.003906 Z M 177.296875 132.898438 L 169.019531 132.898438 L 169.019531 107.988281 L 177.296875 107.988281 Z M 215.644531 126.953125 C 216.039063 126.277344 216.238281 125.25 216.238281 123.871094 L 216.238281 120.878906 C 215.902344 121.21875 215.527344 121.425781 215.023438 121.5 C 214.519531 121.578125 213.964844 121.753906 213.355469 122.027344 C 212.714844 122.335938 212.273438 122.742188 212.027344 123.25 C 211.785156 123.753906 211.664063 124.421875 211.664063 125.25 C 211.664063 126.078125 211.84375 126.734375 212.214844 127.226563 C 212.578125 127.714844 213.066406 127.964844 213.675781 127.964844 C 214.589844 127.964844 215.246094 127.625 215.644531 126.953125 M 216.421875 131.5625 L 216.238281 130.085938 C 215.6875 131.191406 214.960938 132.023438 213.96875 132.578125 C 212.972656 133.128906 211.835938 133.40625 210.550781 133.40625 C 209.296875 133.40625 208.238281 133.25 207.367188 132.925781 C 206.496094 132.601563 205.78125 132.121094 205.234375 131.476563 C 204.683594 130.832031 204.285156 130.066406 204.042969 129.175781 C 203.796875 128.285156 203.675781 127.304688 203.675781 126.230469 C 203.675781 125.0625 203.789063 124.050781 204.019531 123.191406 C 204.246094 122.332031 204.621094 121.585938 205.140625 120.960938 C 205.660156 120.332031 206.363281 119.792969 207.253906 119.347656 C 208.136719 118.902344 209.238281 118.527344 210.550781 118.222656 L 213.808594 117.4375 C 214.691406 117.222656 215.320313 116.910156 215.6875 116.496094 C 216.054688 116.082031 216.238281 115.488281 216.238281 114.722656 C 216.238281 113.1875 215.539063 112.421875 214.136719 112.421875 C 213.34375 112.421875 212.765625 112.640625 212.402344 113.082031 C 212.035156 113.519531 211.839844 114.390625 211.808594 115.6875 L 204.617188 115.6875 C 204.617188 113.886719 204.941406 112.4375 205.585938 111.351563 C 206.230469 110.265625 207.027344 109.425781 207.980469 108.828125 C 208.933594 108.230469 209.960938 107.835938 211.066406 107.636719 C 212.171875 107.4375 213.199219 107.339844 214.152344 107.339844 C 215.597656 107.339844 216.921875 107.453125 218.136719 107.683594 C 219.347656 107.914063 220.390625 108.328125 221.269531 108.929688 C 222.144531 109.527344 222.816406 110.339844 223.296875 111.367188 C 223.769531 112.398438 224.007813 113.726563 224.007813 115.351563 L 224.007813 127.511719 C 224.007813 128.679688 224.054688 129.707031 224.144531 130.597656 C 224.234375 131.488281 224.453125 132.253906 224.789063 132.898438 L 216.746094 132.898438 C 216.589844 132.46875 216.484375 132.023438 216.421875 131.5625 M 285.367188 113.34375 C 285.050781 112.730469 284.453125 112.421875 283.574219 112.421875 C 282.726563 112.421875 282.140625 112.730469 281.820313 113.34375 C 281.503906 113.960938 281.34375 114.929688 281.34375 116.25 L 281.34375 117.359375 L 285.847656 117.359375 L 285.847656 116.25 C 285.847656 114.929688 285.6875 113.960938 285.367188 113.34375 M 281.34375 125.121094 C 281.34375 126.464844 281.574219 127.363281 282.03125 127.804688 C 282.488281 128.25 283.007813 128.472656 283.585938 128.472656 C 284.316406 128.472656 284.890625 128.171875 285.300781 127.574219 C 285.714844 126.972656 285.921875 125.832031 285.921875 124.140625 L 293.398438 124.140625 C 293.339844 127.214844 292.554688 129.523438 291.054688 131.078125 C 289.550781 132.632813 287.082031 133.40625 283.644531 133.40625 C 281.652344 133.40625 279.980469 133.183594 278.632813 132.738281 C 277.28125 132.296875 276.191406 131.558594 275.367188 130.53125 C 274.539063 129.5 273.945313 128.15625 273.59375 126.5 C 273.242188 124.84375 273.066406 122.828125 273.066406 120.46875 C 273.066406 118.070313 273.265625 116.042969 273.664063 114.386719 C 274.0625 112.726563 274.6875 111.378906 275.546875 110.332031 C 276.40625 109.289063 277.503906 108.527344 278.835938 108.050781 C 280.171875 107.578125 281.769531 107.339844 283.640625 107.339844 C 285.292969 107.339844 286.742188 107.539063 287.984375 107.9375 C 289.226563 108.339844 290.269531 109.007813 291.109375 109.941406 C 291.953125 110.878906 292.582031 112.109375 292.996094 113.632813 C 293.410156 115.152344 293.617188 117.054688 293.617188 119.328125 L 293.617188 121.859375 L 281.34375 121.859375 Z M 341.96875 124.300781 C 342.03125 125.296875 342.15625 126.085938 342.339844 126.667969 C 342.519531 127.246094 342.757813 127.644531 343.046875 127.859375 C 343.339844 128.074219 343.710938 128.179688 344.164063 128.179688 C 344.628906 128.179688 345.007813 128.074219 345.3125 127.859375 C 345.617188 127.644531 345.855469 127.246094 346.023438 126.667969 C 346.1875 126.085938 346.300781 125.296875 346.363281 124.300781 C 346.425781 123.308594 346.457031 122.027344 346.457031 120.46875 C 346.457031 118.90625 346.425781 117.625 346.363281 116.613281 C 346.300781 115.601563 346.1875 114.804688 346.023438 114.226563 C 345.855469 113.644531 345.617188 113.25 345.3125 113.035156 C 345.007813 112.820313 344.628906 112.710938 344.164063 112.710938 C 343.710938 112.710938 343.339844 112.820313 343.046875 113.035156 C 342.757813 113.25 342.519531 113.644531 342.339844 114.226563 C 342.15625 114.804688 342.03125 115.601563 341.96875 116.613281 C 341.910156 117.625 341.882813 118.90625 341.882813 120.46875 C 341.882813 122.027344 341.910156 123.308594 341.96875 124.300781 M 354.390625 125.257813 C 354.160156 126.820313 353.675781 128.210938 352.945313 129.425781 C 352.207031 130.636719 351.144531 131.601563 349.753906 132.328125 C 348.355469 133.046875 346.496094 133.40625 344.164063 133.40625 C 341.75 133.40625 339.835938 133.078125 338.425781 132.417969 C 337.015625 131.757813 335.960938 130.835938 335.253906 129.65625 C 334.550781 128.472656 334.097656 127.09375 333.902344 125.511719 C 333.703125 123.929688 333.601563 122.230469 333.601563 120.417969 C 333.601563 118.792969 333.714844 117.195313 333.945313 115.628906 C 334.175781 114.0625 334.660156 112.667969 335.394531 111.4375 C 336.128906 110.210938 337.195313 109.21875 338.589844 108.46875 C 339.980469 107.714844 341.839844 107.339844 344.164063 107.339844 C 346.589844 107.339844 348.503906 107.683594 349.910156 108.375 C 351.316406 109.066406 352.378906 110.011719 353.078125 111.207031 C 353.785156 112.40625 354.234375 113.792969 354.4375 115.375 C 354.636719 116.957031 354.734375 118.652344 354.734375 120.46875 C 354.734375 122.09375 354.621094 123.6875 354.390625 125.257813 "/>
</g>
</svg>
